<?xml version="1.0" encoding="UTF-8"?>
<!-- Generated by Pixelmator Pro 3.6.7 -->
<svg width="512" height="512" viewBox="0 0 512 512" xmlns="http://www.w3.org/2000/svg">
    <g id="Group">
        <path id="Path" fill="#f0f0f0" stroke="none" d="M 244.186371 511.752167 C 219.045975 510.71109 195.004303 506.137482 171.587616 497.941071 C 94.144188 470.833344 33.538929 407.477814 10.268302 329.279663 C 0.239193 295.592224 -2.512759 258.122925 2.318441 221.024231 C 7.031626 184.829193 19.597385 150.432068 39.58955 118.998993 C 54.919968 94.894897 76.601517 71.145599 99.579987 53.286163 C 146.440094 16.865601 208.748688 -2.762817 267.733124 0.314728 C 300.60672 2.029694 331.167175 9.238464 360.594604 22.219849 C 371.003937 26.811676 386.029724 34.994751 395.774933 41.379883 C 413.748718 53.155853 424.186218 61.823517 439.575043 77.75174 C 456.410675 95.178497 467.682678 109.774475 478.1875 127.753906 C 487.343475 143.423645 496.096527 163.56778 501.34256 181.042023 C 503.374359 187.809723 506.984924 202.749298 508.564056 210.923828 C 511.600952 226.643677 511.993439 231.662842 511.999939 254.866028 C 512.007507 279.289337 511.412323 287.069458 508.295135 303.353882 C 496.447205 365.24649 463.100311 419.655823 413.19043 458.533966 C 384.211426 481.106567 349.644592 497.493866 313.417664 505.834595 C 292.186981 510.723083 268.424774 512.753723 244.192581 511.750305 Z M 199.601273 407.824738 C 199.600616 407.13028 199.507141 405.112122 199.394073 403.339905 L 199.188583 400.117706 L 193.216202 399.771149 C 188.074692 399.472839 187.123169 399.331085 186.376404 398.752106 C 183.806091 396.759216 184.51181 390.745789 189.233658 374.405304 C 190.33078 370.608765 193.472549 359.471619 196.215607 349.656189 C 198.958557 339.840759 202.82106 326.12854 204.798935 319.183411 C 206.776825 312.238525 210.127289 300.343872 212.2444 292.751038 C 214.361496 285.15802 216.835648 276.394104 217.742447 273.275696 C 218.649307 270.157227 221.881256 258.716736 224.924591 247.853851 C 231.209076 225.419739 235.292999 211.284149 236.285294 208.529846 C 236.943924 206.701843 236.981201 206.664764 237.55249 207.272522 C 237.876221 207.616882 242.438049 216.990021 247.689819 228.101257 C 252.941574 239.212921 264.315857 263.153992 272.964874 281.302307 C 294.797607 327.11499 321.04184 382.317078 327.916321 396.885345 L 333.677551 409.096344 L 348.10614 408.978271 C 356.041901 408.913391 362.859833 408.719421 363.258698 408.547302 C 363.971802 408.238831 363.946777 408.156982 361.515564 402.851898 C 360.158997 399.891571 351.171295 380.953369 341.54248 360.767029 C 279.69873 231.107727 263.778931 197.38205 255.30777 178.09668 C 249.3349 164.497955 246.53923 158.564606 245.509338 157.30484 C 244.455933 156.015533 243.436447 155.901581 242.498398 156.96814 C 240.974991 158.700165 237.284607 170.24234 230.574875 194.259399 C 227.962112 203.611725 222.271103 223.840454 217.928177 239.210693 C 209.49437 269.060883 207.108093 277.513733 199.725769 303.692749 C 197.14035 312.859924 193.631577 325.285278 191.928467 331.303101 C 190.225357 337.321899 186.805634 349.519958 184.329178 358.409424 C 178.862122 378.033875 176.535034 385.964355 174.94397 390.397858 C 172.229355 397.960846 171.676529 398.746796 168.692398 399.28656 C 167.563736 399.490662 165.63089 399.658478 164.39711 399.659515 C 161.603485 399.663513 159.888535 400.138885 159.245316 401.092468 C 158.709564 401.88678 158.528641 407.530029 159.013474 408.322784 C 159.274811 408.750031 162.147385 408.816345 188.66066 409.00708 L 199.603806 409.085815 L 199.602936 407.82312 Z M 246.283508 136.628906 C 251.781326 135.410889 257.030548 130.108551 258.271179 124.519989 C 258.735718 122.427612 258.68457 117.95636 258.17337 115.97229 C 257.092316 111.775818 254.02124 107.673767 250.502441 105.726105 C 245.661484 103.0466 238.49118 103.04895 233.643967 105.732697 C 226.044434 109.939087 223.284454 120.360321 227.562363 128.69577 C 230.991348 135.376801 238.182877 138.424713 246.28302 136.630219 Z"/>
        <path id="Circle" fill="#575757" stroke="none" d="M 256 0 C 114.61525 0 0 114.615257 0 256 C 0 397.384735 114.61525 512 256 512 C 397.384735 512 512 397.384735 512 256 C 512 114.615257 397.384735 0 256 0 Z M 256 4 C 395.175446 4 508 116.824524 508 256 C 508 395.175446 395.175446 508 256 508 C 116.824524 508 4 395.175446 4 256 C 4 116.824524 116.824524 4 256 4 Z"/>
    </g>
    <g id="g1">
        <path id="path1" fill="#00b6f0" stroke="#00b6f0" stroke-width="0.297331" d="M 234.067764 106.178009 C 223.288239 112.003052 223.375183 129.030151 234.328568 134.765594 C 241.804688 138.70871 251.367157 136.199432 255.800674 129.209381 C 260.842682 121.41275 258.060883 110.300354 249.976257 106.088379 C 245.54274 103.758362 238.501282 103.758362 234.067764 106.178009 Z"/>
        <path id="path2" fill="#575757" stroke="none" d="M 242.34436 157.257843 C 241.282883 158.735199 236.77153 172.585571 233.321655 185.235535 C 230.667953 194.83847 224.387421 217.55304 218.72612 237.405212 C 216.956955 243.776398 213.595551 255.779999 211.207184 264.182556 C 208.907288 272.585114 205.545883 284.588745 203.688263 290.9599 C 201.919098 297.331055 198.557724 309.334686 196.169357 317.737244 C 193.869431 326.139801 190.508026 338.143433 188.650406 344.514587 C 186.881271 350.885742 183.608307 362.52005 181.485321 370.368591 C 176.266296 389.482056 173.258743 397.976929 171.312653 398.992645 C 170.428085 399.546631 168.216629 399.915985 166.359024 399.915985 C 159.901581 399.915985 158.928543 400.654663 159.193924 404.9021 L 159.459305 408.687897 L 179.627701 408.964874 L 199.796112 409.149567 L 199.530731 404.809784 L 199.265381 400.377686 L 192.807953 400.100647 C 186.969711 399.823669 186.262039 399.638977 185.377472 397.607605 C 184.227524 395.022217 185.377472 388.0047 188.650406 376.832092 C 189.800354 373.046326 192.807953 362.427704 195.28476 353.286499 C 197.761581 344.145264 201.122986 332.049255 202.803696 326.509125 C 204.395935 320.876648 207.757339 308.872986 210.322601 299.731781 C 212.799438 290.590576 216.160843 278.494598 217.841522 272.954437 C 219.433777 267.32196 222.795181 255.318329 225.360458 246.177094 C 232.879379 218.753387 236.240784 207.488464 236.948441 206.565094 C 237.390732 206.103394 238.45224 207.58078 239.425278 209.796844 C 240.309845 212.012909 256.40918 246.084747 275.073822 285.419769 C 293.738434 324.754761 314.614532 368.706543 321.337311 383.110901 L 333.632965 409.149567 L 348.493896 409.149567 C 356.632019 409.149567 363.354828 408.780212 363.354828 408.410889 C 363.354828 408.041534 356.72049 393.821838 348.670807 376.832092 C 296.657532 267.598999 262.955078 196.038818 257.293793 182.927185 C 254.728485 177.110016 251.19017 168.984467 249.421021 164.921692 C 245.52887 156.149841 244.290451 154.764771 242.34436 157.257843 Z"/>
    </g>
</svg>
